<svg width="8" height="8" viewBox="0 0 8 8" fill="none" xmlns="http://www.w3.org/2000/svg">
<path fill-rule="evenodd" clip-rule="evenodd" d="M0 4C0 1.7908 1.7908 0 4 0C6.2092 0 8 1.7908 8 4C8 6.2092 6.2092 8 4 8C1.7908 8 0 6.2092 0 4ZM4 0.8C3.15131 0.8 2.33737 1.13714 1.73726 1.73726C1.13714 2.33737 0.8 3.15131 0.8 4C0.8 4.84869 1.13714 5.66263 1.73726 6.26274C2.33737 6.86286 3.15131 7.2 4 7.2C4.84869 7.2 5.66263 6.86286 6.26274 6.26274C6.86286 5.66263 7.2 4.84869 7.2 4C7.2 3.15131 6.86286 2.33737 6.26274 1.73726C5.66263 1.13714 4.84869 0.8 4 0.8Z" fill="#32A7E2"/>
<path fill-rule="evenodd" clip-rule="evenodd" d="M4.39998 2.00002C4.39998 1.89393 4.35783 1.79219 4.28282 1.71718C4.2078 1.64216 4.10606 1.60002 3.99998 1.60002C3.89389 1.60002 3.79215 1.64216 3.71713 1.71718C3.64212 1.79219 3.59998 1.89393 3.59998 2.00002V3.60002H1.99998C1.89389 3.60002 1.79215 3.64216 1.71713 3.71718C1.64212 3.79219 1.59998 3.89393 1.59998 4.00002C1.59998 4.10611 1.64212 4.20785 1.71713 4.28286C1.79215 4.35788 1.89389 4.40002 1.99998 4.40002H3.59998V6.00002C3.59998 6.10611 3.64212 6.20785 3.71713 6.28286C3.79215 6.35788 3.89389 6.40002 3.99998 6.40002C4.10606 6.40002 4.2078 6.35788 4.28282 6.28286C4.35783 6.20785 4.39998 6.10611 4.39998 6.00002V4.40002H5.99998C6.10606 4.40002 6.2078 4.35788 6.28282 4.28286C6.35783 4.20785 6.39998 4.10611 6.39998 4.00002C6.39998 3.89393 6.35783 3.79219 6.28282 3.71718C6.2078 3.64216 6.10606 3.60002 5.99998 3.60002H4.39998V2.00002Z" fill="#32A7E2"/>
</svg>
