<svg width="24" height="24" viewBox="0 0 24 24" fill="none" xmlns="http://www.w3.org/2000/svg">
<path d="M14.8253 12.0027L21.414 5.41401C21.6022 5.22887 21.7519 5.0083 21.8545 4.76501C21.957 4.52173 22.0104 4.26055 22.0115 3.99654C22.0126 3.73253 21.9614 3.47091 21.8609 3.22677C21.7604 2.98264 21.6126 2.76082 21.4259 2.57411C21.2392 2.3874 21.0174 2.2395 20.7733 2.13894C20.5292 2.03837 20.2676 1.98713 20.0036 1.98817C19.7396 1.98922 19.4784 2.04252 19.2351 2.14502C18.9918 2.24751 18.7712 2.39716 18.586 2.58534L11.9973 9.17401L5.40867 2.58601C5.22293 2.40027 5.00244 2.25294 4.75976 2.15242C4.51709 2.05191 4.257 2.00017 3.99433 2.00017C3.73167 2.00017 3.47157 2.05191 3.2289 2.15242C2.98623 2.25294 2.76573 2.40027 2.58 2.58601C2.2049 2.96111 1.99416 3.46986 1.99416 4.00034C1.99416 4.53082 2.2049 5.03957 2.58 5.41467L9.16867 12.0027L2.564 18.6073C2.19402 18.9835 1.98765 19.4906 1.98986 20.0182C1.99208 20.5458 2.20268 21.0512 2.5758 21.4242C2.94892 21.7972 3.45433 22.0077 3.98194 22.0098C4.50955 22.0119 5.01661 21.8054 5.39267 21.4353L11.9967 14.8313L18.5847 21.4193C18.9753 21.81 19.4873 22.0053 19.9987 22.0053C20.51 22.0053 21.022 21.81 21.4127 21.4193C21.5985 21.2337 21.7459 21.0133 21.8465 20.7707C21.947 20.528 21.9988 20.268 21.9988 20.0053C21.9988 19.7427 21.947 19.4826 21.8465 19.24C21.7459 18.9974 21.5985 18.777 21.4127 18.5913L14.8253 12.0027Z" fill="#31373D"/>
</svg>
