<svg width="6" height="5" viewBox="0 0 6 5" fill="none" xmlns="http://www.w3.org/2000/svg">
<g clip-path="url(#clip0_1_80)">
<path d="M5.3525 2.4125L3.1025 0.537501C3.00875 0.460018 2.88204 0.41658 2.75 0.416668H1C0.867392 0.416668 0.740215 0.460567 0.646447 0.538707C0.552679 0.616847 0.5 0.722828 0.5 0.833335V2.29167C0.499948 2.34665 0.512954 2.4011 0.538269 2.45187C0.563585 2.50264 0.600708 2.54874 0.6475 2.5875L2.8975 4.4625C2.99125 4.53998 3.11796 4.58342 3.25 4.58333C3.38239 4.58287 3.50916 4.53867 3.6025 4.46042L5.3525 3.00208C5.4464 2.9243 5.49944 2.81866 5.5 2.70833C5.50005 2.65335 5.48705 2.59891 5.46173 2.54813C5.43642 2.49736 5.39929 2.45126 5.3525 2.4125ZM3.25 4.16667L1 2.29167V0.833335H2.75L5 2.70833M1.625 1.04167C1.69917 1.04167 1.77167 1.06 1.83334 1.09433C1.89501 1.12867 1.94307 1.17748 1.97145 1.23458C1.99984 1.29168 2.00726 1.35451 1.99279 1.41513C1.97833 1.47575 1.94261 1.53144 1.89017 1.57514C1.83772 1.61884 1.7709 1.64861 1.69816 1.66066C1.62542 1.67272 1.55002 1.66653 1.48149 1.64288C1.41297 1.61923 1.3544 1.57917 1.3132 1.52778C1.27199 1.47639 1.25 1.41597 1.25 1.35417C1.25 1.27129 1.28951 1.1918 1.35984 1.1332C1.43016 1.07459 1.52554 1.04167 1.625 1.04167Z" fill="#A8A8A8"/>
</g>
<defs>
<clipPath id="clip0_1_80">
<rect width="6" height="5" fill="white"/>
</clipPath>
</defs>
</svg>
