<svg width="22" height="21" viewBox="0 0 22 21" fill="none" xmlns="http://www.w3.org/2000/svg">
<ellipse cx="10.5495" cy="10.5" rx="10.5495" ry="10.5" fill="#DC3434"/>
<path d="M11.6756 12.9264H13.2991L12.9181 15.2214L12.6075 14.4139C11.5233 15.5154 8.60456 16.5389 7.62579 12.9122C8.73935 15.6535 11.491 14.3537 12.2178 13.4966L11.6756 12.9264ZM9.00602 11.7364C8.88377 11.7405 8.76234 11.7109 8.65102 11.6497C8.53969 11.5884 8.44141 11.4973 8.36367 11.3832C8.28593 11.2691 8.23079 11.135 8.20245 10.9912C8.17411 10.8474 8.17333 10.6977 8.20016 10.5535L8.31444 9.78495C8.36831 9.46089 8.51097 9.16824 8.7194 8.95425C8.92783 8.74025 9.18986 8.61742 9.46317 8.60557C9.58529 8.60086 9.70668 8.63002 9.81803 8.69082C9.92938 8.75161 10.0277 8.84242 10.1055 8.95629C10.1833 9.07015 10.2385 9.20404 10.2669 9.34768C10.2952 9.49132 10.296 9.6409 10.269 9.78495L10.1518 10.5535C10.0987 10.8776 9.95668 11.1707 9.74879 11.3853C9.5409 11.5999 9.27923 11.7236 9.00602 11.7364ZM11.9101 11.7364C11.7876 11.7413 11.6659 11.7121 11.5543 11.6511C11.4427 11.5901 11.3441 11.4989 11.2663 11.3846C11.1884 11.2703 11.1333 11.136 11.1052 10.9919C11.0771 10.8478 11.0768 10.6978 11.1042 10.5535L11.2156 9.78495C11.2705 9.46088 11.4139 9.1685 11.6227 8.95465C11.8315 8.7408 12.0937 8.61788 12.3672 8.60557C12.4893 8.60086 12.6107 8.63002 12.7221 8.69082C12.8334 8.75161 12.9318 8.84242 13.0096 8.95629C13.0874 9.07015 13.1426 9.20404 13.1709 9.34768C13.1993 9.49132 13.2 9.6409 13.1731 9.78495L13.0588 10.5535C13.005 10.8779 12.8625 11.171 12.6541 11.3856C12.4457 11.6002 12.1836 11.7238 11.9101 11.7364Z" stroke="white" stroke-width="1.04167" stroke-linecap="round" stroke-linejoin="round"/>
<path d="M5.57911 9.16265C5.67698 9.05433 5.69519 8.88583 5.61978 8.7863C5.54436 8.68676 5.40388 8.69388 5.306 8.80219C5.20813 8.91051 5.18992 9.07901 5.26534 9.17855C5.34075 9.27809 5.48123 9.27097 5.57911 9.16265Z" fill="white"/>
<path d="M5.48074 8.60557L5.02359 11.7364M16.0478 9.78495C16.0748 9.6409 16.074 9.49132 16.0457 9.34768C16.0173 9.20404 15.9621 9.07015 15.8843 8.95629C15.8065 8.84242 15.7082 8.75161 15.5968 8.69082C15.4855 8.63002 15.3641 8.60086 15.242 8.60557C14.9687 8.61742 14.7066 8.74025 14.4982 8.95425C14.2898 9.16824 14.1471 9.46089 14.0933 9.78495L13.979 10.5535C13.9521 10.6977 13.9529 10.8474 13.9813 10.9912C14.0096 11.135 14.0647 11.2691 14.1425 11.3832C14.2202 11.4973 14.3185 11.5884 14.4298 11.6497C14.5412 11.7109 14.6626 11.7405 14.7848 11.7364C15.0588 11.7239 15.3213 11.6005 15.5301 11.3859C15.739 11.1714 15.8821 10.8782 15.9365 10.5535M15.7636 11.7364L16.4522 7.00828M6.41554 12.6643L7.11884 7.83703C7.1528 7.60738 7.25176 7.39913 7.39877 7.24794C7.54578 7.09676 7.7317 7.01204 7.92471 7.00828C8.04729 6.98636 8.17251 7.0082 8.28496 7.07112C8.39741 7.13404 8.4922 7.2353 8.55768 7.36245M6.47122 8.60557H7.83973" stroke="white" stroke-width="1.04167" stroke-linecap="round" stroke-linejoin="round"/>
</svg>
