<svg width="22" height="22" viewBox="0 0 22 22" fill="none" xmlns="http://www.w3.org/2000/svg">
<ellipse cx="10.6" cy="11" rx="10.6" ry="11" fill="#32A7E2"/>
<path d="M10.0632 8.8H10.8644L13.1069 8.95971L13.4323 7.9H10.8644H10.7643H10.0632L7.69871 7.87971L7.99916 8.95971L10.0632 8.8ZM8.46079 14.2C8.02012 14.2 7.66358 14.605 7.66358 15.1C7.66358 15.595 8.02012 16 8.46079 16C8.90145 16 9.262 15.595 9.262 15.1C9.262 14.605 8.90145 14.2 8.46079 14.2ZM12.4668 14.2C12.0262 14.2 11.6696 14.605 11.6696 15.1C11.6696 15.595 12.0262 16 12.4668 16C12.9075 16 13.268 15.595 13.268 15.1C13.268 14.605 12.9075 14.2 12.4668 14.2ZM8.52889 12.7375L8.54091 12.6835L8.90145 11.95H11.886C12.1864 11.95 12.4508 11.7655 12.587 11.4865L14.1333 8.332L13.4363 7.9H13.4323L12.9916 8.8L11.886 11.05H9.07371L9.02163 10.9285L8.12428 8.8L7.74371 7.9L7.36714 7H6.05716V7.9H6.85837L8.30055 11.3155L7.75973 12.418C7.69563 12.544 7.65958 12.6925 7.65958 12.85C7.65958 13.345 8.02012 13.75 8.46079 13.75H13.268V12.85H8.62904C8.57696 12.85 8.52889 12.8005 8.52889 12.7375Z" fill="white"/>
</svg>
