<svg width="21" height="22" viewBox="0 0 21 22" fill="none" xmlns="http://www.w3.org/2000/svg">
<ellipse cx="10.5" cy="11" rx="10.5" ry="11" fill="#FF9BB3"/>
<path d="M15 14.4286V9.57143C15 9.48272 14.9819 9.39522 14.9472 9.31588C14.9125 9.23653 14.8621 9.16751 14.8 9.11429L11.3 6.11429C11.2135 6.0401 11.1082 6 11 6C10.8918 6 10.7865 6.0401 10.7 6.11429L7.2 9.11429C7.1379 9.16751 7.0875 9.23653 7.05279 9.31588C7.01807 9.39522 7 9.48272 7 9.57143V14.4286C7 14.5801 7.05268 14.7255 7.14645 14.8326C7.24021 14.9398 7.36739 15 7.5 15H9.5C9.63261 15 9.75979 14.9398 9.85355 14.8326C9.94732 14.7255 10 14.5801 10 14.4286V12.7143C10 12.5627 10.0527 12.4174 10.1464 12.3102C10.2402 12.2031 10.3674 12.1429 10.5 12.1429H11.5C11.6326 12.1429 11.7598 12.2031 11.8536 12.3102C11.9473 12.4174 12 12.5627 12 12.7143V14.4286C12 14.5801 12.0527 14.7255 12.1464 14.8326C12.2402 14.9398 12.3674 15 12.5 15H14.5C14.6326 15 14.7598 14.9398 14.8536 14.8326C14.9473 14.7255 15 14.5801 15 14.4286Z" stroke="white" stroke-linecap="round" stroke-linejoin="round"/>
</svg>
