<svg width="22" height="22" viewBox="0 0 22 22" fill="none" xmlns="http://www.w3.org/2000/svg">
<ellipse cx="10.5495" cy="11" rx="10.5495" ry="11" fill="#B548C6"/>
<path d="M12.3206 6.951L5.93571 6.99387C5.6938 6.9955 5.46262 7.11772 5.29302 7.33364C5.12342 7.54956 5.02929 7.8415 5.03135 8.14523L5.06629 13.2988L5.97841 13.2927C5.98481 14.2375 6.60117 15.0064 7.35824 15.0013C8.1153 14.9962 8.72118 14.2191 8.71477 13.2743L11.2231 13.2574C11.2295 14.2023 11.8459 14.9712 12.6029 14.9661C13.36 14.961 13.9659 14.1839 13.9595 13.2391L15.0996 13.2314L15.0802 10.3683L12.3206 6.951ZM5.959 10.4296L5.94347 8.13911L7.76772 8.12686L7.78324 10.4173L5.959 10.4296ZM7.35241 14.1424C6.97388 14.1449 6.66572 13.7633 6.6625 13.2881C6.65928 12.8128 6.96224 12.4271 7.34077 12.4246C7.7193 12.422 8.02746 12.8036 8.03068 13.2789C8.0339 13.7542 7.73094 14.1399 7.35241 14.1424ZM10.5196 10.399L8.69536 10.4112L8.67984 8.12073L10.5041 8.10848L10.5196 10.399ZM12.5971 14.1072C12.2186 14.1097 11.9104 13.7281 11.9072 13.2529C11.904 12.7776 12.2069 12.3919 12.5855 12.3893C12.964 12.3868 13.2722 12.7684 13.2754 13.2437C13.2786 13.7189 12.9756 14.1046 12.5971 14.1072ZM11.4317 10.3928L11.4162 8.10236L11.8723 8.0993L13.712 10.3775L11.4317 10.3928Z" fill="white"/>
</svg>
